<svg width="50" height="50" viewBox="0 0 50 50" fill="none" xmlns="http://www.w3.org/2000/svg">
<rect width="50" height="50" rx="5" fill="#EEEEEE"/>
<path d="M15.7344 25.3594H9.96875L9.9375 22.9375H15.1719C16.0365 22.9375 16.7917 22.7917 17.4375 22.5C18.0833 22.2083 18.5833 21.7917 18.9375 21.25C19.3021 20.6979 19.4844 20.0417 19.4844 19.2812C19.4844 18.4479 19.3229 17.7708 19 17.25C18.6875 16.7188 18.2031 16.3333 17.5469 16.0938C16.901 15.8438 16.0781 15.7188 15.0781 15.7188H10.6406V36H7.625V13.25H15.0781C16.2448 13.25 17.2865 13.3698 18.2031 13.6094C19.1198 13.8385 19.8958 14.2031 20.5312 14.7031C21.1771 15.1927 21.6667 15.8177 22 16.5781C22.3333 17.3385 22.5 18.25 22.5 19.3125C22.5 20.25 22.2604 21.099 21.7812 21.8594C21.3021 22.6094 20.6354 23.224 19.7812 23.7031C18.9375 24.1823 17.9479 24.4896 16.8125 24.625L15.7344 25.3594ZM15.5938 36H8.78125L10.4844 33.5469H15.5938C16.5521 33.5469 17.3646 33.3802 18.0312 33.0469C18.7083 32.7135 19.224 32.2448 19.5781 31.6406C19.9323 31.026 20.1094 30.3021 20.1094 29.4688C20.1094 28.625 19.9583 27.8958 19.6562 27.2812C19.3542 26.6667 18.8802 26.1927 18.2344 25.8594C17.5885 25.526 16.7552 25.3594 15.7344 25.3594H11.4375L11.4688 22.9375H17.3438L17.9844 23.8125C19.0781 23.9062 20.0052 24.2188 20.7656 24.75C21.526 25.2708 22.1042 25.9375 22.5 26.75C22.9062 27.5625 23.1094 28.4583 23.1094 29.4375C23.1094 30.8542 22.7969 32.0521 22.1719 33.0312C21.5573 34 20.6875 34.7396 19.5625 35.25C18.4375 35.75 17.1146 36 15.5938 36ZM30.5781 13.25V36H27.5625V13.25H30.5781ZM44.3125 13.25L34.8594 23.8594L29.5469 29.375L29.0469 26.1562L33.0469 21.75L40.6875 13.25H44.3125ZM41.4062 36L32.9844 24.9062L34.7812 22.5156L45 36H41.4062Z" fill="#393434"/>
</svg>
