<svg version="1.1" id="Layer_1" xmlns="http://www.w3.org/2000/svg" xmlns:xlink="http://www.w3.org/1999/xlink" x="0px" y="0px"
	 width="100%" viewBox="0 0 600 173" enable-background="new 0 0 600 173" xml:space="preserve">
<path fill="#FFFFFF" opacity="1.000000" stroke="none" 
	d="
M430.000000,174.000000 
	C286.666656,174.000000 143.833328,174.000000 1.000000,174.000000 
	C1.000000,116.333336 1.000000,58.666668 1.000000,1.000000 
	C201.000000,1.000000 401.000000,1.000000 601.000000,1.000000 
	C601.000000,58.666668 601.000000,116.333336 601.000000,174.000000 
	C544.166687,174.000000 487.333344,174.000000 430.000000,174.000000 
M157.727722,116.517670 
	C157.802399,98.208771 157.885284,79.899872 157.910355,61.590908 
	C157.911072,61.066170 157.297928,60.540585 156.474930,59.332531 
	C149.339935,59.199680 142.204926,59.066833 135.000046,58.202484 
	C130.500015,50.150890 125.998787,42.099964 121.500710,34.047279 
	C120.207649,31.732378 118.421646,30.886843 115.612396,30.915195 
	C99.138794,31.081461 82.628677,31.635572 66.199921,30.761332 
	C56.071533,30.222357 48.628334,31.863743 45.706127,42.638733 
	C45.589573,43.068493 44.981606,43.341454 44.754158,43.768238 
	C41.889156,49.144188 39.052071,54.535015 35.555725,60.221321 
	C30.784781,68.543823 25.901531,76.805603 21.339674,85.241180 
	C20.450180,86.885994 19.931559,89.697701 20.736174,91.134201 
	C25.654152,99.914444 31.002977,108.453362 36.118488,117.794914 
	C40.757313,125.935852 45.562859,133.988525 49.944832,142.265457 
	C51.485435,145.175446 53.180714,146.112946 56.424915,146.085342 
	C75.893845,145.919632 95.366325,145.880112 114.834015,146.107269 
	C118.711884,146.152512 120.539970,144.591629 122.270264,141.483246 
	C126.679001,133.563171 131.407578,125.821144 136.942337,117.944710 
	C143.637436,117.632454 150.332520,117.320206 157.727722,116.517670 
M409.921783,116.165329 
	C409.886475,114.450218 409.851135,112.735115 409.961243,110.143364 
	C409.888550,108.549904 409.815826,106.956444 409.733978,105.163109 
	C401.898132,105.163109 394.456390,105.163109 386.340240,104.609154 
	C386.231354,102.791435 386.033875,100.973999 386.027954,99.155945 
	C385.989502,87.334167 386.084595,75.510597 385.871002,63.692398 
	C385.842926,62.140331 384.479309,59.445560 383.434448,59.289673 
	C379.776520,58.743950 375.987274,59.078148 372.277557,59.078148 
	C372.277557,79.162254 372.277557,98.417084 372.277557,118.090706 
	C374.373749,117.872246 376.149170,117.687218 378.717865,117.736809 
	C383.468903,117.757042 388.219910,117.777275 393.903015,117.918556 
	C398.938690,117.870705 403.974365,117.822861 409.471436,117.798920 
	C409.805969,117.626907 409.907806,117.364532 409.921783,116.165329 
M239.082977,59.043011 
	C232.187180,59.043011 225.291382,59.043011 218.129761,59.043011 
	C218.129761,73.883965 218.129761,87.958702 218.052124,102.961143 
	C218.052124,107.875519 218.052124,112.789894 218.052124,118.003677 
	C231.018280,118.003677 243.161438,117.787209 255.290192,118.110558 
	C260.121216,118.239342 261.299774,116.456276 261.118256,112.008842 
	C260.949463,107.874779 261.288391,104.506737 255.281342,104.877335 
	C247.365417,105.365707 239.396637,104.997391 231.334702,104.997391 
	C231.140564,102.951057 231.001266,101.482803 230.961121,99.165504 
	C230.394470,94.848793 232.584503,93.793892 236.512054,93.931816 
	C243.221619,94.167435 249.945465,93.996796 256.654419,93.996796 
	C256.654419,89.948631 256.654419,86.720207 256.654419,83.003296 
	C249.566559,83.003296 242.807755,83.135376 236.060638,82.912842 
	C234.317032,82.855347 232.610153,81.685204 230.975723,80.125351 
	C232.125870,77.283470 228.062698,71.881142 235.951080,71.968552 
	C243.866074,71.968552 251.781082,71.968552 260.003387,71.968552 
	C260.003387,68.532173 259.889191,65.879288 260.032135,63.240341 
	C260.212799,59.905094 258.606506,58.860172 255.495224,58.963524 
	C250.340103,59.134769 245.177750,59.088253 239.082977,59.043011 
M495.199829,59.038422 
	C493.357666,59.936443 490.498016,60.368496 489.838715,61.808197 
	C485.596436,71.071899 481.835785,80.556152 477.309906,90.338104 
	C476.182312,93.215736 475.054718,96.093369 473.337738,99.309860 
	C473.193237,100.198647 473.048767,101.087433 472.290985,102.327652 
	C470.229248,107.177513 468.167480,112.027374 465.547455,118.190475 
	C471.572510,117.042694 476.603760,120.096085 481.704193,115.659592 
	C482.542023,113.548981 483.624939,111.498772 484.163239,109.314346 
	C485.091217,105.548599 487.348785,104.654396 490.977997,104.915657 
	C495.585175,105.247330 500.247009,105.206779 504.860565,104.923874 
	C507.827911,104.741920 509.218475,105.875870 510.293732,108.497566 
	C511.609528,111.705765 513.418152,114.711853 515.933533,117.935402 
	C519.879578,117.935402 523.825562,117.935402 529.222778,117.935402 
	C526.166443,111.042419 523.500183,105.029213 520.950989,98.277573 
	C518.000061,91.838280 515.049133,85.398987 511.992584,78.211235 
	C510.190582,73.855949 507.876373,69.632706 506.711365,65.113220 
	C505.119904,58.939468 501.185364,58.244678 495.199829,59.038422 
M286.605743,117.528503 
	C297.326416,118.671364 297.326416,118.671364 296.952484,108.118263 
	C295.331848,97.284241 299.720825,88.385925 305.516785,79.679245 
	C309.640442,73.484711 312.875793,66.698837 316.939758,59.400719 
	C314.518524,59.271305 313.270203,59.204582 311.122620,59.021118 
	C307.821594,59.513588 302.983093,58.817841 301.510498,60.723347 
	C297.247040,66.240036 294.336639,72.802376 290.268585,78.994370 
	C289.850952,78.974434 289.433289,78.954498 288.953857,78.232262 
	C285.796326,72.810623 282.720856,67.338173 279.420074,62.005199 
	C278.651825,60.763969 277.189606,59.275593 275.921143,59.147869 
	C272.157928,58.768940 268.332001,59.012180 263.248810,59.012180 
	C267.826691,69.451180 273.231018,78.305046 279.041046,87.733414 
	C283.572754,93.268867 283.208282,99.837303 283.017883,106.386673 
	C282.931946,109.342926 283.008057,112.303581 282.983582,115.262024 
	C282.967041,117.260941 283.312408,118.706596 286.605743,117.528503 
M162.035370,69.949562 
	C162.061539,76.303925 162.087723,82.658287 162.044281,89.945885 
	C162.027496,97.747284 161.871384,105.552979 162.111893,113.346436 
	C162.159790,114.898521 163.432266,117.420837 164.637146,117.767349 
	C173.147629,120.214935 176.006668,117.920143 176.008621,109.214394 
	C176.008926,107.886475 175.686768,106.455780 176.071304,105.250511 
	C177.094894,102.042221 178.422836,98.931030 180.071335,94.628815 
	C185.774292,102.088348 190.342651,108.063805 195.272568,114.682846 
	C198.347321,118.459419 207.044342,119.484901 213.155380,116.356674 
	C210.765457,113.349243 208.465179,110.454620 206.017075,106.905838 
	C202.290939,101.483963 199.028442,95.651260 194.698334,90.764580 
	C190.942123,86.525566 191.204330,83.472275 195.662552,79.720497 
	C201.203140,73.201958 208.049286,67.711098 213.018524,58.988968 
	C209.087265,58.988968 206.628662,59.146397 204.197433,58.955452 
	C199.469391,58.584118 195.806717,59.616447 192.544403,63.716259 
	C187.779114,69.704895 182.100555,74.966812 175.998367,81.394798 
	C175.998367,74.656860 175.848022,69.208694 176.049988,63.773617 
	C176.190155,60.001648 174.677002,58.523876 170.128494,59.021034 
	C161.917969,58.962353 161.916275,58.962372 161.999451,67.034813 
	C162.006256,67.695511 162.057465,68.355759 162.035370,69.949562 
M444.905457,117.809662 
	C454.254486,116.212646 461.719788,111.905899 466.679535,102.712631 
	C472.758972,91.299713 471.594269,73.285164 457.717957,63.341278 
	C449.555420,58.219887 440.774628,56.522282 431.430359,59.075031 
	C419.454559,62.346691 411.557800,70.009575 409.475616,82.328178 
	C407.772034,92.406776 409.234131,102.057129 418.260284,109.707512 
	C425.305328,117.391052 434.247253,118.912369 444.905457,117.809662 
M329.397095,115.703979 
	C339.486938,119.248184 349.418488,119.454689 358.948364,113.989067 
	C366.901764,109.427635 367.264893,106.687569 360.991974,100.513603 
	C360.075104,99.611168 359.070282,98.798042 357.813019,97.683777 
	C352.511566,103.959877 345.818085,105.925484 337.700500,104.345970 
	C326.812103,100.952354 324.906403,89.850906 328.036377,81.318115 
	C331.655701,71.451263 343.864685,68.308937 352.763062,74.251625 
	C359.696655,78.882172 360.438629,78.723404 365.153229,71.623795 
	C365.773346,70.689987 366.417816,69.772354 367.007996,68.910072 
	C355.589264,55.468487 333.511810,54.218212 321.264832,66.297791 
	C313.267761,74.185524 310.942474,83.836159 312.949585,94.817238 
	C314.719482,104.500359 320.163574,111.060356 329.397095,115.703979 
M532.030884,67.940598 
	C532.030884,84.488319 532.030884,101.036034 532.030884,117.566566 
	C532.990173,117.771126 533.456726,117.960808 533.921570,117.956657 
	C548.531067,117.826149 545.852783,119.881218 545.898132,106.523781 
	C545.913940,101.883652 546.827515,98.166656 550.863037,96.168442 
	C556.007874,102.607567 560.967712,108.815163 566.075928,115.818413 
	C567.040710,116.515541 567.976501,117.761757 568.975281,117.814445 
	C573.227112,118.038788 577.497498,117.909813 582.908081,117.909813 
	C580.250916,113.670395 578.152649,110.322624 575.816833,106.325912 
	C570.756226,99.206505 565.695557,92.087090 560.701050,85.060699 
	C566.263916,79.050591 571.523071,73.580139 576.514038,67.875107 
	C578.586487,65.506119 580.086121,62.636009 581.887451,59.479847 
	C581.594727,59.374043 581.301941,59.268238 580.182495,59.039494 
	C578.793030,59.083622 577.403625,59.127747 575.122925,59.023106 
	C569.682678,58.704140 564.166809,58.216129 561.287292,65.235199 
	C556.404480,70.394012 551.521667,75.552826 545.811707,81.585564 
	C545.811707,75.540070 545.811707,70.777756 545.960815,65.159119 
	C545.974365,58.313564 543.539246,57.328133 532.165649,59.662895 
	C532.165649,62.092873 532.165649,64.553329 532.030884,67.940598 
z"/>
<path fill="#4E4E4E" opacity="1.000000" stroke="none" 
	d="
M36.207855,59.922043 
	C39.052071,54.535015 41.889156,49.144188 44.754158,43.768238 
	C44.981606,43.341454 45.589573,43.068493 45.706127,42.638733 
	C48.628334,31.863743 56.071533,30.222357 66.199921,30.761332 
	C82.628677,31.635572 99.138794,31.081461 115.612396,30.915195 
	C118.421646,30.886843 120.207649,31.732378 121.500710,34.047279 
	C125.998787,42.099964 130.500015,50.150890 134.907898,58.729023 
	C134.815750,59.255562 134.770920,59.663006 134.319550,59.672997 
	C127.207199,59.677334 120.546227,59.671677 113.680573,59.431580 
	C106.860695,49.272480 105.814293,48.741524 96.618607,50.968735 
	C94.672523,53.984989 93.029152,56.829712 90.981255,59.680477 
	C87.147011,59.682198 83.717285,59.677879 80.166061,59.362061 
	C78.415642,56.633579 76.786728,54.216602 75.044815,51.412987 
	C67.602348,48.517052 64.256119,49.594543 60.641861,55.593208 
	C59.785164,57.015091 58.859837,58.395618 57.501652,59.747295 
	C50.094105,59.773628 43.150978,59.847836 36.207855,59.922043 
z"/>
<path fill="#4E4E4E" opacity="1.000000" stroke="none" 
	d="
M136.008163,118.007866 
	C131.407578,125.821144 126.679001,133.563171 122.270264,141.483246 
	C120.539970,144.591629 118.711884,146.152512 114.834015,146.107269 
	C95.366325,145.880112 75.893845,145.919632 56.424915,146.085342 
	C53.180714,146.112946 51.485435,145.175446 49.944832,142.265457 
	C45.562859,133.988525 40.757313,125.935852 36.612366,117.513168 
	C44.036560,117.229385 50.966869,117.227348 58.089401,117.493645 
	C64.631187,127.718338 66.447029,128.615280 75.295654,125.847885 
	C77.156860,122.907860 78.728439,120.143051 80.733688,117.370041 
	C84.631706,117.281212 88.096039,117.200584 91.679405,117.461807 
	C93.890358,120.800453 95.982277,123.797256 98.518265,126.822655 
	C105.630310,128.159927 110.241844,125.872658 112.462067,119.239403 
	C112.703323,118.518616 113.440498,117.963821 114.422241,117.315933 
	C121.825607,117.342430 128.754379,117.385033 135.708176,117.604202 
	C135.733185,117.780762 136.008163,118.007866 136.008163,118.007866 
z"/>
<path fill="#6D6D6E" opacity="1.000000" stroke="none" 
	d="
M545.811707,66.015442 
	C545.811707,70.777756 545.811707,75.540070 545.811707,81.585564 
	C551.521667,75.552826 556.404480,70.394012 562.029968,65.106766 
	C565.710144,64.651474 568.652039,64.029518 571.584106,64.072754 
	C575.217407,64.126320 576.293213,62.391487 576.014160,59.171875 
	C577.403625,59.127747 578.793030,59.083622 580.693237,59.278061 
	C581.372864,59.736462 581.586975,59.895508 581.846252,59.993774 
	C580.086121,62.636009 578.586487,65.506119 576.514038,67.875107 
	C571.523071,73.580139 566.263916,79.050591 560.701050,85.060699 
	C565.695557,92.087090 570.756226,99.206505 575.587646,106.699890 
	C572.214844,109.723495 569.071167,112.373116 565.927551,115.022751 
	C560.967712,108.815163 556.007874,102.607567 550.863037,96.168442 
	C546.827515,98.166656 545.913940,101.883652 545.898132,106.523781 
	C545.852783,119.881218 548.531067,117.826149 533.921570,117.956657 
	C533.456726,117.960808 532.990173,117.771126 532.030884,117.566566 
	C532.030884,101.036034 532.030884,84.488319 532.541260,67.472504 
	C537.304993,66.674751 541.558350,66.345100 545.811707,66.015442 
z"/>
<path fill="#DBDCDC" opacity="1.000000" stroke="none" 
	d="
M57.897182,117.225304 
	C50.966869,117.227348 44.036560,117.229385 36.657219,117.152069 
	C31.002977,108.453362 25.654152,99.914444 20.736174,91.134201 
	C19.931559,89.697701 20.450180,86.885994 21.339674,85.241180 
	C25.901531,76.805603 30.784781,68.543823 35.881790,60.071682 
	C43.150978,59.847836 50.094105,59.773628 57.405083,60.096184 
	C53.207314,68.395569 48.843002,76.424995 43.982430,84.141853 
	C41.876751,87.484917 41.834938,90.125359 44.155727,93.100586 
	C45.165653,94.395294 46.009117,95.819862 46.981697,97.523621 
	C50.655869,104.316299 54.276527,110.770805 57.897182,117.225304 
z"/>
<path fill="#A9A9AA" opacity="1.000000" stroke="none" 
	d="
M328.931824,115.118134 
	C320.163574,111.060356 314.719482,104.500359 312.949585,94.817238 
	C310.942474,83.836159 313.267761,74.185524 321.264832,66.297791 
	C333.511810,54.218212 355.589264,55.468487 367.007996,68.910072 
	C366.417816,69.772354 365.773346,70.689987 365.153229,71.623795 
	C360.438629,78.723404 359.696655,78.882172 352.763062,74.251625 
	C343.864685,68.308937 331.655701,71.451263 328.036377,81.318115 
	C324.906403,89.850906 326.812103,100.952354 337.595825,104.784637 
	C334.638062,108.521584 331.784943,111.819855 328.931824,115.118134 
z"/>
<path fill="#929292" opacity="1.000000" stroke="none" 
	d="
M417.955322,109.113266 
	C409.234131,102.057129 407.772034,92.406776 409.475616,82.328178 
	C411.557800,70.009575 419.454559,62.346691 431.430359,59.075031 
	C440.774628,56.522282 449.555420,58.219887 457.620789,63.861584 
	C455.669861,68.286270 453.816162,72.190651 451.650879,75.945412 
	C440.945435,64.317451 426.172699,72.467644 423.688202,84.040657 
	C421.945557,92.158234 425.387634,97.538628 429.737000,103.002411 
	C425.562866,105.069092 421.759094,107.091187 417.955322,109.113266 
z"/>
<path fill="#C5C5C5" opacity="1.000000" stroke="none" 
	d="
M194.910995,114.039246 
	C190.342651,108.063805 185.774292,102.088348 180.071335,94.628815 
	C178.422836,98.931030 177.094894,102.042221 176.071304,105.250511 
	C175.686768,106.455780 176.008926,107.886475 176.008621,109.214394 
	C176.006668,117.920143 173.147629,120.214935 164.637146,117.767349 
	C163.432266,117.420837 162.159790,114.898521 162.111893,113.346436 
	C161.871384,105.552979 162.027496,97.747284 162.443756,89.427551 
	C173.585739,85.943619 184.328262,82.978027 195.070786,80.012436 
	C191.204330,83.472275 190.942123,86.525566 194.698334,90.764580 
	C199.028442,95.651260 202.290939,101.483963 205.917465,107.575348 
	C202.182236,110.176323 198.546616,112.107788 194.910995,114.039246 
z"/>
<path fill="#868686" opacity="1.000000" stroke="none" 
	d="
M451.962463,76.095032 
	C453.816162,72.190651 455.669861,68.286270 457.805054,64.165497 
	C471.594269,73.285164 472.758972,91.299713 466.157227,102.637802 
	C462.163635,103.397102 457.937195,103.272568 455.389648,105.279350 
	C451.052948,108.695595 447.772034,113.452080 444.047485,117.645447 
	C434.247253,118.912369 425.305328,117.391052 418.107788,109.410393 
	C421.759094,107.091187 425.562866,105.069092 430.061279,103.169464 
	C442.049194,110.520073 453.263489,102.138016 455.717499,92.459816 
	C457.222260,86.525337 455.044525,81.133743 451.962463,76.095032 
z"/>
<path fill="#777777" opacity="1.000000" stroke="none" 
	d="
M472.904297,101.976227 
	C473.048767,101.087433 473.193237,100.198647 474.009460,99.146057 
	C478.132202,97.179550 481.516876,95.229454 485.061340,93.634499 
	C486.914032,92.800827 489.047668,92.591476 491.274109,92.460495 
	C495.234497,92.820839 498.975220,92.820839 503.268799,92.820839 
	C502.150635,89.621376 501.169800,86.814911 500.553680,84.000183 
	C504.645020,82.314507 508.371613,80.637100 512.098206,78.959686 
	C515.049133,85.398987 518.000061,91.838280 520.543457,98.718765 
	C518.428528,105.375076 516.721130,111.590202 515.013672,117.805321 
	C513.418152,114.711853 511.609528,111.705765 510.293732,108.497566 
	C509.218475,105.875870 507.827911,104.741920 504.860565,104.923874 
	C500.247009,105.206779 495.585175,105.247330 490.977997,104.915657 
	C487.348785,104.654396 485.091217,105.548599 484.163239,109.314346 
	C483.624939,111.498772 482.542023,113.548981 481.109375,115.658340 
	C479.271210,113.001526 478.149414,110.279518 476.745605,107.711700 
	C475.646301,105.700844 474.197693,103.880959 472.904297,101.976227 
z"/>
<path fill="#9C9C9C" opacity="1.000000" stroke="none" 
	d="
M377.924561,117.502197 
	C376.149170,117.687218 374.373749,117.872246 372.277557,118.090706 
	C372.277557,98.417084 372.277557,79.162254 372.277557,59.078148 
	C375.987274,59.078148 379.776520,58.743950 383.434448,59.289673 
	C384.479309,59.445560 385.842926,62.140331 385.871002,63.692398 
	C386.084595,75.510597 385.989502,87.334167 386.027954,99.155945 
	C386.033875,100.973999 386.231354,102.791435 386.630463,105.217476 
	C385.690979,107.304703 384.409149,108.743851 383.243591,110.271713 
	C381.429108,112.650215 379.693573,115.088974 377.924561,117.502197 
z"/>
<path fill="#CCCCCC" opacity="1.000000" stroke="none" 
	d="
M195.366669,79.866470 
	C184.328262,82.978027 173.585739,85.943619 162.478546,88.960930 
	C162.087723,82.658287 162.061539,76.303925 162.398788,69.437668 
	C165.513885,65.648041 168.265564,62.370308 171.017242,59.092575 
	C174.677002,58.523876 176.190155,60.001648 176.049988,63.773617 
	C175.848022,69.208694 175.998367,74.656860 175.998367,81.394798 
	C182.100555,74.966812 187.779114,69.704895 192.544403,63.716259 
	C195.806717,59.616447 199.469391,58.584118 204.197433,58.955452 
	C206.628662,59.146397 209.087265,58.988968 213.018524,58.988968 
	C208.049286,67.711098 201.203140,73.201958 195.366669,79.866470 
z"/>
<path fill="#AEAEAE" opacity="1.000000" stroke="none" 
	d="
M289.015656,78.934563 
	C289.433289,78.954498 289.850952,78.974434 290.940277,78.957916 
	C297.955902,74.330063 304.440704,69.913330 310.528076,65.003807 
	C311.785248,63.989887 311.562500,61.141006 312.021851,59.137859 
	C313.270203,59.204582 314.518524,59.271305 316.939758,59.400719 
	C312.875793,66.698837 309.640442,73.484711 305.516785,79.679245 
	C299.720825,88.385925 295.331848,97.284241 296.524353,108.577194 
	C292.655121,111.798180 289.214020,114.560242 285.772949,117.322311 
	C283.312408,118.706596 282.967041,117.260941 282.983582,115.262024 
	C283.008057,112.303581 282.931946,109.342926 283.017883,106.386673 
	C283.208282,99.837303 283.572754,93.268867 279.343140,87.338028 
	C282.768707,84.273293 285.892181,81.603928 289.015656,78.934563 
z"/>
<path fill="#B6B6B6" opacity="1.000000" stroke="none" 
	d="
M230.861969,100.014542 
	C231.001266,101.482803 231.140564,102.951057 231.334702,104.997391 
	C239.396637,104.997391 247.365417,105.365707 255.281342,104.877335 
	C261.288391,104.506737 260.949463,107.874779 261.118256,112.008842 
	C261.299774,116.456276 260.121216,118.239342 255.290192,118.110558 
	C243.161438,117.787209 231.018280,118.003677 218.052124,118.003677 
	C218.052124,112.789894 218.052124,107.875519 218.393616,102.456741 
	C219.485550,101.630646 220.236008,101.308960 221.414825,100.992004 
	C224.849442,100.669342 227.855698,100.341942 230.861969,100.014542 
z"/>
<path fill="#7F7F7F" opacity="1.000000" stroke="none" 
	d="
M512.045410,78.585464 
	C508.371613,80.637100 504.645020,82.314507 500.393799,83.690292 
	C499.069031,82.059387 498.268890,80.730118 497.428284,79.333595 
	C495.244659,83.707329 493.149536,87.903748 491.054413,92.100159 
	C489.047668,92.591476 486.914032,92.800827 485.061340,93.634499 
	C481.516876,95.229454 478.132202,97.179550 474.304199,98.976624 
	C475.054718,96.093369 476.182312,93.215736 477.965515,90.116539 
	C484.417755,79.656593 490.214355,69.418213 496.010956,59.179825 
	C501.185364,58.244678 505.119904,58.939468 506.711365,65.113220 
	C507.876373,69.632706 510.190582,73.855949 512.045410,78.585464 
z"/>
<path fill="#C5C5C5" opacity="1.000000" stroke="none" 
	d="
M220.986450,100.987267 
	C220.236008,101.308960 219.485550,101.630646 218.432434,101.992889 
	C218.129761,87.958702 218.129761,73.883965 218.129761,59.043011 
	C225.291382,59.043011 232.187180,59.043011 239.498901,59.434914 
	C238.283142,63.848293 236.651459,67.869774 235.019775,71.891251 
	C228.062698,71.881142 232.125870,77.283470 230.596207,80.626007 
	C227.139938,87.746872 224.063202,94.367065 220.986450,100.987267 
z"/>
<path fill="#9C9C9C" opacity="1.000000" stroke="none" 
	d="
M329.164459,115.411057 
	C331.784943,111.819855 334.638062,108.521584 337.802063,105.073456 
	C345.818085,105.925484 352.511566,103.959877 357.813019,97.683777 
	C359.070282,98.798042 360.075104,99.611168 360.991974,100.513603 
	C367.264893,106.687569 366.901764,109.427635 358.948364,113.989067 
	C349.418488,119.454689 339.486938,119.248184 329.164459,115.411057 
z"/>
<path fill="#BCBCBC" opacity="1.000000" stroke="none" 
	d="
M221.414825,100.992004 
	C224.063202,94.367065 227.139938,87.746872 230.551544,81.076416 
	C232.610153,81.685204 234.317032,82.855347 236.060638,82.912842 
	C242.807755,83.135376 249.566559,83.003296 256.654419,83.003296 
	C256.654419,86.720207 256.654419,89.948631 256.654419,93.996796 
	C249.945465,93.996796 243.221619,94.167435 236.512054,93.931816 
	C232.584503,93.793892 230.394470,94.848793 230.911530,99.590027 
	C227.855698,100.341942 224.849442,100.669342 221.414825,100.992004 
z"/>
<path fill="#BCBCBC" opacity="1.000000" stroke="none" 
	d="
M288.984741,78.583412 
	C285.892181,81.603928 282.768707,84.273293 279.283203,86.976089 
	C273.231018,78.305046 267.826691,69.451180 263.248810,59.012180 
	C268.332001,59.012180 272.157928,58.768940 275.921143,59.147869 
	C277.189606,59.275593 278.651825,60.763969 279.420074,62.005199 
	C282.720856,67.338173 285.796326,72.810623 288.984741,78.583412 
z"/>
<path fill="#BCBCBC" opacity="1.000000" stroke="none" 
	d="
M235.485443,71.929901 
	C236.651459,67.869774 238.283142,63.848293 239.966629,59.480148 
	C245.177750,59.088253 250.340103,59.134769 255.495224,58.963524 
	C258.606506,58.860172 260.212799,59.905094 260.032135,63.240341 
	C259.889191,65.879288 260.003387,68.532173 260.003387,71.968552 
	C251.781082,71.968552 243.866074,71.968552 235.485443,71.929901 
z"/>
<path fill="#929292" opacity="1.000000" stroke="none" 
	d="
M378.321228,117.619507 
	C379.693573,115.088974 381.429108,112.650215 383.243591,110.271713 
	C384.409149,108.743851 385.690979,107.304703 386.967682,105.494453 
	C394.456390,105.163109 401.898132,105.163109 409.733978,105.163109 
	C409.815826,106.956444 409.888550,108.549904 409.485718,110.576401 
	C403.515991,112.592041 398.019989,114.168816 392.552765,115.839752 
	C392.497833,115.856544 392.823151,117.117416 392.970947,117.797508 
	C388.219910,117.777275 383.468903,117.757042 378.321228,117.619507 
z"/>
<path fill="#B6B6B6" opacity="1.000000" stroke="none" 
	d="
M311.572235,59.079491 
	C311.562500,61.141006 311.785248,63.989887 310.528076,65.003807 
	C304.440704,69.913330 297.955902,74.330063 291.253571,78.937881 
	C294.336639,72.802376 297.247040,66.240036 301.510498,60.723347 
	C302.983093,58.817841 307.821594,59.513588 311.572235,59.079491 
z"/>
<path fill="#6D6D6E" opacity="1.000000" stroke="none" 
	d="
M515.473633,117.870361 
	C516.721130,111.590202 518.428528,105.375076 520.484924,99.087982 
	C523.500183,105.029213 526.166443,111.042419 529.222778,117.935402 
	C523.825562,117.935402 519.879578,117.935402 515.473633,117.870361 
z"/>
<path fill="#7F7F7F" opacity="1.000000" stroke="none" 
	d="
M444.476471,117.727554 
	C447.772034,113.452080 451.052948,108.695595 455.389648,105.279350 
	C457.937195,103.272568 462.163635,103.397102 465.847382,102.833282 
	C461.719788,111.905899 454.254486,116.212646 444.476471,117.727554 
z"/>
<path fill="#7F7F7F" opacity="1.000000" stroke="none" 
	d="
M472.597656,102.151939 
	C474.197693,103.880959 475.646301,105.700844 476.745605,107.711700 
	C478.149414,110.279518 479.271210,113.001526 480.804565,115.856209 
	C476.603760,120.096085 471.572510,117.042694 465.547455,118.190475 
	C468.167480,112.027374 470.229248,107.177513 472.597656,102.151939 
z"/>
<path fill="#868686" opacity="1.000000" stroke="none" 
	d="
M495.605408,59.109123 
	C490.214355,69.418213 484.417755,79.656593 478.269073,89.931480 
	C481.835785,80.556152 485.596436,71.071899 489.838715,61.808197 
	C490.498016,60.368496 493.357666,59.936443 495.605408,59.109123 
z"/>
<path fill="#4E4E4E" opacity="1.000000" stroke="none" 
	d="
M566.001709,115.420578 
	C569.071167,112.373116 572.214844,109.723495 575.706421,107.024368 
	C578.152649,110.322624 580.250916,113.670395 582.908081,117.909813 
	C577.497498,117.909813 573.227112,118.038788 568.975281,117.814445 
	C567.976501,117.761757 567.040710,116.515541 566.001709,115.420578 
z"/>
<path fill="#BCBCBC" opacity="1.000000" stroke="none" 
	d="
M195.091782,114.361046 
	C198.546616,112.107788 202.182236,110.176323 205.991379,107.902428 
	C208.465179,110.454620 210.765457,113.349243 213.155380,116.356674 
	C207.044342,119.484901 198.347321,118.459419 195.091782,114.361046 
z"/>
<path fill="#777777" opacity="1.000000" stroke="none" 
	d="
M545.886230,65.587280 
	C541.558350,66.345100 537.304993,66.674751 532.608643,67.009094 
	C532.165649,64.553329 532.165649,62.092873 532.165649,59.662895 
	C543.539246,57.328133 545.974365,58.313564 545.886230,65.587280 
z"/>
<path fill="#868686" opacity="1.000000" stroke="none" 
	d="
M393.436981,117.858032 
	C392.823151,117.117416 392.497833,115.856544 392.552765,115.839752 
	C398.019989,114.168816 403.515991,112.592041 409.412994,111.014725 
	C409.851135,112.735115 409.886475,114.450218 409.686584,116.677017 
	C409.248169,117.341904 409.101044,117.537338 409.010040,117.775009 
	C403.974365,117.822861 398.938690,117.870705 393.436981,117.858032 
z"/>
<path fill="#9C9C9C" opacity="1.000000" stroke="none" 
	d="
M286.189331,117.425400 
	C289.214020,114.560242 292.655121,111.798180 296.447754,109.040543 
	C297.326416,118.671364 297.326416,118.671364 286.189331,117.425400 
z"/>
<path fill="#777777" opacity="1.000000" stroke="none" 
	d="
M575.568542,59.097492 
	C576.293213,62.391487 575.217407,64.126320 571.584106,64.072754 
	C568.652039,64.029518 565.710144,64.651474 562.328735,64.964493 
	C564.166809,58.216129 569.682678,58.704140 575.568542,59.097492 
z"/>
<path fill="#AEAEAE" opacity="1.000000" stroke="none" 
	d="
M156.971024,60.015396 
	C157.297928,60.540585 157.911072,61.066170 157.910355,61.590908 
	C157.885284,79.899872 157.802399,98.208771 157.366394,116.771667 
	C157.005051,117.025673 156.978775,117.033913 156.978348,116.562401 
	C156.968307,107.386108 156.958694,98.681320 156.964447,89.518372 
	C156.964096,85.371338 156.948395,81.682472 156.956650,77.526604 
	C156.984573,71.361137 156.988556,65.662666 156.999939,59.982086 
	C157.007339,59.999973 156.971024,60.015396 156.971024,60.015396 
z"/>
<path fill="#D4D4D4" opacity="1.000000" stroke="none" 
	d="
M170.572876,59.056801 
	C168.265564,62.370308 165.513885,65.648041 162.425110,68.970993 
	C162.057465,68.355759 162.006256,67.695511 161.999451,67.034813 
	C161.916275,58.962372 161.917969,58.962353 170.572876,59.056801 
z"/>
<path fill="#9C9C9C" opacity="1.000000" stroke="none" 
	d="
M134.770920,59.663006 
	C134.770920,59.663006 134.815750,59.255562 134.942841,59.094772 
	C142.204926,59.066833 149.339935,59.199680 156.722977,59.673965 
	C156.971024,60.015396 157.007339,59.999973 156.531967,59.973141 
	C148.961365,59.851875 141.866150,59.757442 134.770920,59.663006 
z"/>
<path fill="#9C9C9C" opacity="1.000000" stroke="none" 
	d="
M136.475250,117.976288 
	C136.008163,118.007866 135.733185,117.780762 136.191101,117.484619 
	C143.425598,117.136955 150.202179,117.085434 156.978775,117.033913 
	C156.978775,117.033913 157.005051,117.025673 157.016327,117.016815 
	C150.332520,117.320206 143.637436,117.632454 136.475250,117.976288 
z"/>
<path fill="#777777" opacity="1.000000" stroke="none" 
	d="
M581.866821,59.736809 
	C581.586975,59.895508 581.372864,59.736462 581.106567,59.339531 
	C581.301941,59.268238 581.594727,59.374043 581.866821,59.736809 
z"/>
<path fill="#929292" opacity="1.000000" stroke="none" 
	d="
M409.240723,117.786972 
	C409.101044,117.537338 409.248169,117.341904 409.614136,117.100250 
	C409.907806,117.364532 409.805969,117.626907 409.240723,117.786972 
z"/>
<path fill="#D4D4D4" opacity="1.000000" stroke="none" 
	d="
M134.319550,59.672997 
	C141.866150,59.757442 148.961365,59.851875 156.524567,59.955254 
	C156.988556,65.662666 156.984573,71.361137 156.627045,77.581329 
	C152.848343,82.397728 149.423218,86.692406 145.748413,90.990013 
	C145.498749,90.992943 144.999420,90.998367 144.793701,90.718964 
	C139.027954,88.304817 133.467926,86.170059 127.653229,83.849747 
	C126.604691,82.437691 125.810814,81.211197 124.936142,79.644859 
	C121.198639,72.758690 117.541946,66.212357 113.885246,59.666019 
	C120.546227,59.671677 127.207199,59.677334 134.319550,59.672997 
z"/>
<path fill="#03B8E2" opacity="1.000000" stroke="none" 
	d="
M125.016937,79.984695 
	C125.810814,81.211197 126.604691,82.437691 127.738556,84.195023 
	C130.069839,87.238365 129.981644,89.552177 128.138626,92.302177 
	C125.671097,95.984039 123.712044,100.006683 121.301033,104.112541 
	C118.694153,108.672066 116.320900,113.002052 113.947647,117.332031 
	C113.440498,117.963821 112.703323,118.518616 112.462067,119.239403 
	C110.241844,125.872658 105.630310,128.159927 98.492691,126.462708 
	C100.643730,120.937187 103.129204,115.725464 105.917740,110.681282 
	C109.802544,103.654037 113.914101,96.752151 118.037979,89.607117 
	C113.982338,89.014633 110.605003,88.521240 107.081566,87.704117 
	C105.259636,84.586784 103.583794,81.793190 101.840118,78.661179 
	C98.310120,72.106659 94.847946,65.890549 91.385780,59.674438 
	C93.029152,56.829712 94.672523,53.984989 96.769196,51.295967 
	C104.281586,63.592232 111.340668,75.732796 118.695602,88.382172 
	C121.139450,85.135674 123.078186,82.560181 125.016937,79.984695 
z"/>
<path fill="#DBDCDC" opacity="1.000000" stroke="none" 
	d="
M90.981255,59.680473 
	C94.847946,65.890549 98.310120,72.106659 101.457504,78.667496 
	C97.179184,80.141953 93.221397,81.292435 89.250549,82.395897 
	C84.839645,83.621643 80.416817,84.804504 75.648560,86.007614 
	C74.199638,86.344414 73.101334,86.679649 71.736176,86.725197 
	C69.595810,86.278564 67.722298,86.121620 65.919647,85.614563 
	C70.756195,76.734154 75.521881,68.203857 80.287567,59.673565 
	C83.717285,59.677879 87.147011,59.682198 90.981255,59.680473 
z"/>
<path fill="#048BAA" opacity="1.000000" stroke="none" 
	d="
M46.928185,97.185448 
	C46.009117,95.819862 45.165653,94.395294 44.155727,93.100586 
	C41.834938,90.125359 41.876751,87.484917 43.982430,84.141853 
	C48.843002,76.424995 53.207314,68.395569 57.869507,60.144051 
	C58.859837,58.395618 59.785164,57.015091 60.641861,55.593208 
	C64.256119,49.594543 67.602348,48.517052 74.726021,51.581955 
	C67.647049,64.057503 60.773880,75.977455 53.690990,88.021210 
	C53.223198,88.356079 53.034832,88.617401 52.625603,89.105766 
	C50.532749,91.916855 48.730465,94.551147 46.928185,97.185448 
z"/>
<path fill="#34C5E7" opacity="1.000000" stroke="none" 
	d="
M124.936134,79.644852 
	C123.078186,82.560181 121.139450,85.135674 118.695602,88.382172 
	C111.340668,75.732796 104.281586,63.592232 97.071915,51.124435 
	C105.814293,48.741524 106.860695,49.272480 113.680573,59.431580 
	C117.541946,66.212357 121.198639,72.758690 124.936134,79.644852 
z"/>
<path fill="#03B8E2" opacity="1.000000" stroke="none" 
	d="
M53.900703,87.897408 
	C60.773880,75.977455 67.647049,64.057503 74.839020,51.968590 
	C76.786728,54.216602 78.415642,56.633579 80.166061,59.362061 
	C75.521881,68.203857 70.756195,76.734154 65.677925,85.758667 
	C64.889336,86.828140 64.413330,87.403389 63.485825,87.987030 
	C59.989788,87.962746 56.945244,87.930077 53.900703,87.897408 
z"/>
<path fill="#C5C5C5" opacity="1.000000" stroke="none" 
	d="
M114.422234,117.315926 
	C116.320900,113.002052 118.694153,108.672066 121.698654,104.123528 
	C129.886414,99.602776 137.442917,95.300575 144.999420,90.998367 
	C144.999420,90.998367 145.498749,90.992943 146.163452,90.985413 
	C150.201797,90.644104 153.575455,90.310318 156.949097,89.976540 
	C156.958694,98.681320 156.968307,107.386108 156.978348,116.562401 
	C150.202179,117.085434 143.425598,117.136955 136.166077,117.308052 
	C128.754379,117.385033 121.825607,117.342430 114.422234,117.315926 
z"/>
<path fill="#CFD0D0" opacity="1.000000" stroke="none" 
	d="
M72.003036,87.014885 
	C73.101334,86.679649 74.199638,86.344414 75.686188,86.355774 
	C76.967712,87.612358 77.740517,88.699020 78.773819,89.403679 
	C85.492043,93.985115 92.266876,98.483536 98.947960,103.351227 
	C96.435280,108.168861 93.997826,112.644409 91.560371,117.119957 
	C88.096039,117.200584 84.631706,117.281212 80.622192,116.995346 
	C76.354645,109.839043 72.632271,103.049217 68.940254,95.861504 
	C69.981415,92.647369 70.992226,89.831123 72.003036,87.014885 
z"/>
<path fill="#03B8E2" opacity="1.000000" stroke="none" 
	d="
M46.981697,97.523621 
	C48.730465,94.551147 50.532749,91.916855 52.794510,89.415695 
	C54.199848,91.093094 55.163181,92.626968 56.088749,94.183304 
	C62.398941,104.793922 68.701195,115.409279 75.006012,126.023102 
	C66.447029,128.615280 64.631187,127.718338 58.089401,117.493645 
	C54.276527,110.770805 50.655869,104.316299 46.981697,97.523621 
z"/>
<path fill="#34C5E7" opacity="1.000000" stroke="none" 
	d="
M75.295654,125.847885 
	C68.701195,115.409279 62.398941,104.793922 56.088749,94.183304 
	C55.163181,92.626968 54.199848,91.093094 53.085083,89.238907 
	C53.034832,88.617401 53.223198,88.356079 53.690987,88.021210 
	C56.945244,87.930077 59.989788,87.962746 63.632797,88.302460 
	C65.790802,91.159477 67.350349,93.709435 68.909897,96.259399 
	C72.632271,103.049217 76.354645,109.839043 80.188507,117.003555 
	C78.728439,120.143051 77.156860,122.907860 75.295654,125.847885 
z"/>
<path fill="#048BAA" opacity="1.000000" stroke="none" 
	d="
M91.679405,117.461807 
	C93.997826,112.644409 96.435280,108.168861 99.224670,103.151276 
	C102.126945,97.748772 104.677299,92.888306 107.227661,88.027847 
	C110.605003,88.521240 113.982338,89.014633 118.037979,89.607117 
	C113.914101,96.752151 109.802544,103.654037 105.917740,110.681282 
	C103.129204,115.725464 100.643730,120.937187 98.048630,126.434113 
	C95.982277,123.797256 93.890358,120.800453 91.679405,117.461807 
z"/>
<path fill="#FFFFFF" opacity="1.000000" stroke="none" 
	d="
M451.650879,75.945419 
	C455.044525,81.133743 457.222260,86.525337 455.717499,92.459816 
	C453.263489,102.138016 442.049194,110.520073 430.431641,103.124863 
	C425.387634,97.538628 421.945557,92.158234 423.688202,84.040657 
	C426.172699,72.467644 440.945435,64.317451 451.650879,75.945419 
z"/>
<path fill="#FFFFFF" opacity="1.000000" stroke="none" 
	d="
M491.274109,92.460503 
	C493.149536,87.903748 495.244659,83.707329 497.428284,79.333595 
	C498.268890,80.730118 499.069031,82.059387 500.029053,83.698547 
	C501.169800,86.814911 502.150635,89.621376 503.268799,92.820839 
	C498.975220,92.820839 495.234497,92.820839 491.274109,92.460503 
z"/>
<path fill="#CFD0D0" opacity="1.000000" stroke="none" 
	d="
M156.964447,89.518372 
	C153.575455,90.310318 150.201797,90.644104 146.413116,90.982483 
	C149.423218,86.692406 152.848343,82.397728 156.603088,78.048325 
	C156.948395,81.682472 156.964096,85.371338 156.964447,89.518372 
z"/>
<path fill="#CFD0D0" opacity="1.000000" stroke="none" 
	d="
M144.793701,90.718971 
	C137.442917,95.300575 129.886414,99.602776 121.932281,103.893990 
	C123.712044,100.006683 125.671097,95.984039 128.138626,92.302177 
	C129.981644,89.552177 130.069839,87.238365 127.993225,84.380577 
	C133.467926,86.170059 139.027954,88.304817 144.793701,90.718971 
z"/>
<path fill="#D4D4D4" opacity="1.000000" stroke="none" 
	d="
M107.081558,87.704117 
	C104.677299,92.888306 102.126945,97.748772 99.299881,102.809189 
	C92.266876,98.483536 85.492043,93.985115 78.773819,89.403679 
	C77.740517,88.699020 76.967712,87.612358 76.036812,86.354202 
	C80.416817,84.804504 84.839645,83.621643 89.250549,82.395897 
	C93.221397,81.292435 97.179184,80.141953 101.525345,79.005905 
	C103.583794,81.793190 105.259636,84.586784 107.081558,87.704117 
z"/>
<path fill="#D4D4D4" opacity="1.000000" stroke="none" 
	d="
M68.940254,95.861504 
	C67.350349,93.709435 65.790802,91.159477 64.084290,88.294075 
	C64.413330,87.403389 64.889336,86.828140 65.607071,86.108780 
	C67.722298,86.121620 69.595810,86.278564 71.736176,86.725197 
	C70.992226,89.831123 69.981415,92.647369 68.940254,95.861504 
z"/>
</svg>